<mxfile host="Electron" agent="Mozilla/5.0 (Windows NT 10.0; Win64; x64) AppleWebKit/537.36 (KHTML, like Gecko) draw.io/25.0.2 Chrome/128.0.6613.186 Electron/32.2.5 Safari/537.36" version="25.0.2">
  <diagram name="Page-1" id="JNPMrFEkg_jQPUhvG9zM">
    <mxGraphModel dx="1036" dy="633" grid="1" gridSize="10" guides="1" tooltips="1" connect="1" arrows="1" fold="1" page="1" pageScale="1" pageWidth="850" pageHeight="1100" math="0" shadow="0">
      <root>
        <mxCell id="0" />
        <mxCell id="1" parent="0" />
        <mxCell id="b3qMDgpt2mSAjE6Y_YSd-3" style="edgeStyle=orthogonalEdgeStyle;rounded=0;orthogonalLoop=1;jettySize=auto;html=1;entryX=0.5;entryY=0;entryDx=0;entryDy=0;" parent="1" source="b3qMDgpt2mSAjE6Y_YSd-1" target="b3qMDgpt2mSAjE6Y_YSd-2" edge="1">
          <mxGeometry relative="1" as="geometry" />
        </mxCell>
        <mxCell id="b3qMDgpt2mSAjE6Y_YSd-1" value="start" style="ellipse;whiteSpace=wrap;html=1;" parent="1" vertex="1">
          <mxGeometry x="365" y="70" width="120" height="80" as="geometry" />
        </mxCell>
        <mxCell id="b3qMDgpt2mSAjE6Y_YSd-5" style="edgeStyle=orthogonalEdgeStyle;rounded=0;orthogonalLoop=1;jettySize=auto;html=1;entryX=0.5;entryY=0;entryDx=0;entryDy=0;" parent="1" source="b3qMDgpt2mSAjE6Y_YSd-2" target="b3qMDgpt2mSAjE6Y_YSd-4" edge="1">
          <mxGeometry relative="1" as="geometry" />
        </mxCell>
        <mxCell id="b3qMDgpt2mSAjE6Y_YSd-2" value="input: number,&lt;div&gt;&amp;nbsp; &amp;nbsp; i=1&lt;/div&gt;" style="shape=parallelogram;perimeter=parallelogramPerimeter;whiteSpace=wrap;html=1;fixedSize=1;" parent="1" vertex="1">
          <mxGeometry x="360" y="200" width="130" height="60" as="geometry" />
        </mxCell>
        <mxCell id="b3qMDgpt2mSAjE6Y_YSd-7" style="edgeStyle=orthogonalEdgeStyle;rounded=0;orthogonalLoop=1;jettySize=auto;html=1;entryX=0.5;entryY=0;entryDx=0;entryDy=0;" parent="1" source="b3qMDgpt2mSAjE6Y_YSd-4" target="b3qMDgpt2mSAjE6Y_YSd-6" edge="1">
          <mxGeometry relative="1" as="geometry" />
        </mxCell>
        <mxCell id="b3qMDgpt2mSAjE6Y_YSd-18" style="edgeStyle=orthogonalEdgeStyle;rounded=0;orthogonalLoop=1;jettySize=auto;html=1;entryX=0.5;entryY=0;entryDx=0;entryDy=0;" parent="1" source="b3qMDgpt2mSAjE6Y_YSd-4" target="b3qMDgpt2mSAjE6Y_YSd-14" edge="1">
          <mxGeometry relative="1" as="geometry" />
        </mxCell>
        <mxCell id="b3qMDgpt2mSAjE6Y_YSd-4" value="i&amp;lt;=number" style="rhombus;whiteSpace=wrap;html=1;" parent="1" vertex="1">
          <mxGeometry x="385" y="310" width="80" height="80" as="geometry" />
        </mxCell>
        <mxCell id="b3qMDgpt2mSAjE6Y_YSd-13" style="edgeStyle=orthogonalEdgeStyle;rounded=0;orthogonalLoop=1;jettySize=auto;html=1;entryX=0.5;entryY=0;entryDx=0;entryDy=0;" parent="1" source="b3qMDgpt2mSAjE6Y_YSd-6" target="b3qMDgpt2mSAjE6Y_YSd-15" edge="1">
          <mxGeometry relative="1" as="geometry">
            <mxPoint x="425" y="600" as="targetPoint" />
          </mxGeometry>
        </mxCell>
        <mxCell id="b3qMDgpt2mSAjE6Y_YSd-20" style="edgeStyle=orthogonalEdgeStyle;rounded=0;orthogonalLoop=1;jettySize=auto;html=1;" parent="1" source="b3qMDgpt2mSAjE6Y_YSd-6" edge="1">
          <mxGeometry relative="1" as="geometry">
            <mxPoint x="760" y="350" as="targetPoint" />
          </mxGeometry>
        </mxCell>
        <mxCell id="b3qMDgpt2mSAjE6Y_YSd-6" value="number mod i = 0" style="rhombus;whiteSpace=wrap;html=1;" parent="1" vertex="1">
          <mxGeometry x="373" y="440" width="105" height="100" as="geometry" />
        </mxCell>
        <mxCell id="b3qMDgpt2mSAjE6Y_YSd-8" value="yes" style="text;html=1;align=center;verticalAlign=middle;resizable=0;points=[];autosize=1;strokeColor=none;fillColor=none;" parent="1" vertex="1">
          <mxGeometry x="430" y="398" width="40" height="30" as="geometry" />
        </mxCell>
        <mxCell id="b3qMDgpt2mSAjE6Y_YSd-11" value="yes" style="text;html=1;align=center;verticalAlign=middle;resizable=0;points=[];autosize=1;strokeColor=none;fillColor=none;" parent="1" vertex="1">
          <mxGeometry x="430" y="548" width="40" height="30" as="geometry" />
        </mxCell>
        <mxCell id="b3qMDgpt2mSAjE6Y_YSd-14" value="end" style="ellipse;whiteSpace=wrap;html=1;" parent="1" vertex="1">
          <mxGeometry x="140" y="590" width="120" height="80" as="geometry" />
        </mxCell>
        <mxCell id="b3qMDgpt2mSAjE6Y_YSd-17" style="edgeStyle=orthogonalEdgeStyle;rounded=0;orthogonalLoop=1;jettySize=auto;html=1;" parent="1" source="b3qMDgpt2mSAjE6Y_YSd-15" edge="1">
          <mxGeometry relative="1" as="geometry">
            <mxPoint x="640" y="350" as="targetPoint" />
            <Array as="points">
              <mxPoint x="760" y="640" />
              <mxPoint x="760" y="350" />
            </Array>
          </mxGeometry>
        </mxCell>
        <mxCell id="b3qMDgpt2mSAjE6Y_YSd-15" value="output: i la uoc cua number" style="shape=parallelogram;perimeter=parallelogramPerimeter;whiteSpace=wrap;html=1;fixedSize=1;" parent="1" vertex="1">
          <mxGeometry x="330" y="610" width="190" height="60" as="geometry" />
        </mxCell>
        <mxCell id="b3qMDgpt2mSAjE6Y_YSd-19" value="no" style="text;html=1;align=center;verticalAlign=middle;resizable=0;points=[];autosize=1;strokeColor=none;fillColor=none;" parent="1" vertex="1">
          <mxGeometry x="340" y="318" width="40" height="30" as="geometry" />
        </mxCell>
        <mxCell id="b3qMDgpt2mSAjE6Y_YSd-21" value="no" style="text;html=1;align=center;verticalAlign=middle;resizable=0;points=[];autosize=1;strokeColor=none;fillColor=none;" parent="1" vertex="1">
          <mxGeometry x="480" y="458" width="40" height="30" as="geometry" />
        </mxCell>
        <mxCell id="b3qMDgpt2mSAjE6Y_YSd-24" style="edgeStyle=orthogonalEdgeStyle;rounded=0;orthogonalLoop=1;jettySize=auto;html=1;" parent="1" source="b3qMDgpt2mSAjE6Y_YSd-23" target="b3qMDgpt2mSAjE6Y_YSd-4" edge="1">
          <mxGeometry relative="1" as="geometry" />
        </mxCell>
        <mxCell id="b3qMDgpt2mSAjE6Y_YSd-23" value="i = i + 1" style="rounded=0;whiteSpace=wrap;html=1;" parent="1" vertex="1">
          <mxGeometry x="550" y="330" width="90" height="40" as="geometry" />
        </mxCell>
      </root>
    </mxGraphModel>
  </diagram>
</mxfile>
